:SAMPLES-PER-SECOND 30
:FULLY-SPECIFIED
:DEGREES
177
root  -54.394 41.2569 25.4637 -177.52 -68.8699 175.473
RightUpLeg  0.0311976 -12.29 -10.2062
RightLeg  9.11004 -12.2925 2.15135
RightFoot  -4.31776 -0.235685 3.5256
RightToes  0.00048216 0.542163 -0.142577
Spine  5.37037 -1.77242 -5.00671
Spine1  8.66199 -3.39547 5.53738
HEad  -19.2153 -15.9295 6.80929
LeftShoulder1  8.0223 -12.3076 -44.1734
LeftArm  -17.2701 4.13291 -19.5615
LeftForeArm  50.476 -45.2716 -7.85654
LeftHand  -0.25398 0.0180481 5.50724
RightShoulder  4.16499 7.50132 31.9023
RightArm  -24.7292 -21.6536 33.8372
RightForeArm  4.45971 17.3833 3.87263
RightHand  -1.11913 3.1259 -15.4665
LeftUpLeg  -4.44255 5.39041 3.23411
LeftLeg  2.77287 16.0186 -3.98882
LeftFoot  2.93434 -0.104725 0.693228
LeftToes  1.06245e-005 4.65855e-005 -8.18504e-006
178
root  -54.4341 41.2752 25.3194 -177.622 -68.3298 175.512
RightUpLeg  0.179468 -12.226 -10.0934
RightLeg  8.97495 -11.9354 2.29764
RightFoot  -4.2152 -0.226878 3.38733
RightToes  0.00048216 0.542163 -0.142577
Spine  4.80601 -1.60634 -5.14789
Spine1  8.51314 -3.34565 6.14333
HEad  -18.1712 -15.6467 5.48461
LeftShoulder1  7.46661 -11.8796 -42.1419
LeftArm  -18.178 4.24902 -18.6142
LeftForeArm  52.7782 -48.3788 -8.79607
LeftHand  -0.25398 0.0180481 5.50724
RightShoulder  3.92477 7.22951 30.6141
RightArm  -26.1848 -19.957 32.4077
RightForeArm  3.92851 15.6597 3.50303
RightHand  -1.02109 2.52194 -15.1694
LeftUpLeg  -4.05356 5.55473 3.46514
LeftLeg  2.49584 16.333 -4.07827
LeftFoot  3.34774 -0.162799 1.10586
LeftToes  1.06245e-005 4.65855e-005 -8.18504e-006
179
root  -54.5056 41.2987 25.1954 -177.686 -67.6661 175.318
RightUpLeg  0.579072 -11.9743 -10.0985
RightLeg  8.7072 -11.5048 2.37791
RightFoot  -4.14377 -0.213103 3.17023
RightToes  0.00048216 0.542163 -0.142577
Spine  4.18527 -1.37103 -4.72791
Spine1  8.57982 -2.9928 5.90027
HEad  -17.0298 -15.5993 4.4199
LeftShoulder1  6.88295 -11.4354 -39.8336
LeftArm  -19.1541 4.48625 -17.3472
LeftForeArm  51.134 -49.1063 -9.17935
LeftHand  -0.25398 0.0180481 5.50724
RightShoulder  3.66302 6.91864 29.1593
RightArm  -27.5801 -18.3021 29.8541
RightForeArm  1.5572 13.9206 3.10102
RightHand  -1.01395 2.28112 -15.5013
LeftUpLeg  -3.25978 5.66939 3.60044
LeftLeg  1.90551 16.8433 -4.26788
LeftFoot  3.69128 -0.185798 1.23936
LeftToes  1.06245e-005 4.65855e-005 -8.18504e-006
180
root  -54.5946 41.3198 25.0872 -177.896 -67.067 175.114
RightUpLeg  1.18986 -11.656 -10.1398
RightLeg  8.41752 -11.1377 2.37155
RightFoot  -4.1504 -0.198903 2.94426
RightToes  0.00048216 0.542163 -0.142577
Spine  3.60486 -1.08501 -3.93814
Spine1  8.89769 -2.52347 5.3631
HEad  -15.9343 -15.5563 3.70345
LeftShoulder1  6.39163 -10.9709 -38.0022
LeftArm  -20.0488 4.69205 -15.4009
LeftForeArm  48.2815 -48.096 -8.98646
LeftHand  -0.25398 0.0180481 5.50724
RightShoulder  3.25142 6.31786 27.0616
RightArm  -28.6742 -16.776 27.0017
RightForeArm  -1.47692 12.8201 2.81221
RightHand  -1.13314 2.69577 -16.4427
LeftUpLeg  -2.21721 5.88539 3.7953
LeftLeg  1.22774 17.19 -4.60179
LeftFoot  3.87493 -0.159671 1.01942
LeftToes  1.06245e-005 4.65855e-005 -8.18504e-006
181
root  -54.6771 41.3288 24.9905 -178.257 -66.7488 175.104
RightUpLeg  1.77283 -11.4818 -10.1322
RightLeg  8.25952 -10.9403 2.35411
RightFoot  -4.23936 -0.192012 2.82882
RightToes  0.00048216 0.542163 -0.142577
Spine  3.15603 -0.949867 -2.83736
Spine1  9.11293 -2.11973 4.45956
HEad  -14.9839 -15.4558 3.33151
LeftShoulder1  5.86068 -10.4445 -35.9235
LeftArm  -20.4291 5.16741 -13.5023
LeftForeArm  46.0612 -45.5825 -8.24161
LeftHand  -0.25398 0.0180481 5.50724
RightShoulder  2.82633 5.5692 25.0306
RightArm  -29.5001 -15.1368 23.7019
RightForeArm  -3.14585 12.1959 2.56507
RightHand  -1.19164 3.0331 -16.6087
LeftUpLeg  -1.40344 6.16169 4.07135
LeftLeg  0.895032 17.0927 -4.87029
LeftFoot  3.88924 -0.122985 0.743294
LeftToes  1.06245e-005 4.65855e-005 -8.18504e-006
182
root  -54.7406 41.3266 24.8946 -178.566 -66.8259 175.16
RightUpLeg  2.22739 -11.416 -10.0755
RightLeg  8.27898 -11.0359 2.3242
RightFoot  -4.41739 -0.19187 2.81463
RightToes  0.00048216 0.542163 -0.142577
Spine  2.85666 -1.0324 -1.80115
Spine1  9.06379 -1.95683 3.60577
HEad  -14.1692 -15.1962 3.16177
LeftShoulder1  5.29703 -9.88595 -33.5137
LeftArm  -20.166 5.83822 -12.0642
LeftForeArm  44.0403 -41.3427 -7.02877
LeftHand  -0.25398 0.0180481 5.50724
RightShoulder  2.44917 4.8522 23.1018
RightArm  -30.3283 -13.2875 20.1962
RightForeArm  -3.61146 11.7393 2.28066
RightHand  -1.12606 2.84287 -16.0624
LeftUpLeg  -0.945323 6.32999 4.31551
LeftLeg  0.86924 16.6686 -4.94934
LeftFoot  3.87043 -0.08677 0.474162
LeftToes  1.06245e-005 4.65855e-005 -8.18504e-006
183
root  -54.78 41.3228 24.7832 -178.678 -67.1672 175.09
RightUpLeg  2.55502 -11.3038 -9.96314
RightLeg  8.42712 -11.4159 2.1971
RightFoot  -4.6585 -0.190146 2.77184
RightToes  0.00048216 0.542163 -0.142577
Spine  2.70932 -1.19116 -1.13607
Spine1  8.73958 -1.9884 3.20051
HEad  -13.3551 -14.9227 2.87686
LeftShoulder1  4.80823 -9.39012 -31.2336
LeftArm  -19.4806 6.6428 -10.9364
LeftForeArm  41.4134 -35.7182 -5.63026
LeftHand  -0.25398 0.0180481 5.50724
RightShoulder  2.09018 4.17674 20.8367
RightArm  -31.2327 -11.4738 17.0911
RightForeArm  -4.2513 11.3695 2.02565
RightHand  -1.05545 2.43661 -15.8264
LeftUpLeg  -0.647298 6.40119 4.50804
LeftLeg  0.813395 16.212 -4.98472
LeftFoot  4.00271 -0.042848 0.138259
LeftToes  1.06245e-005 4.65855e-005 -8.18504e-006
184
root  -54.7815 41.3237 24.648 -178.662 -67.5576 174.998
RightUpLeg  2.69974 -11.1251 -9.72241
RightLeg  8.61347 -11.9646 2.00528
RightFoot  -4.87418 -0.18027 2.59795
RightToes  0.00048216 0.542163 -0.142577
Spine  2.53508 -1.33227 -0.878875
Spine1  8.68137 -2.16097 3.33942
HEad  -12.8626 -14.6832 2.28696
LeftShoulder1  4.31369 -8.65277 -29.4183
LeftArm  -18.506 7.46464 -9.844
LeftForeArm  38.2969 -30.0841 -4.44087
LeftHand  -0.25398 0.0180481 5.50724
RightShoulder  1.65903 3.24957 18.0354
RightArm  -32.1377 -9.2725 14.8535
RightForeArm  -4.98249 10.979 1.82925
RightHand  -1.0546 2.32564 -16.027
LeftUpLeg  -0.486411 6.53276 4.75227
LeftLeg  0.689065 15.7311 -5.08974
LeftFoot  4.27869 -0.0117915 -0.103691
LeftToes  1.06245e-005 4.65855e-005 -8.18504e-006
185
root  -54.7322 41.3252 24.4928 -178.705 -67.9576 175.128
RightUpLeg  2.64183 -10.9959 -9.32679
RightLeg  8.76296 -12.5923 1.91921
RightFoot  -5.01844 -0.161285 2.27754
RightToes  0.00048216 0.542163 -0.142577
Spine  2.71141 -1.3717 -0.272658
Spine1  7.81401 -2.06811 2.93612
HEad  -12.0209 -14.7394 2.02464
LeftShoulder1  3.951 -8.3389 -27.2174
LeftArm  -16.7293 9.15143 -8.93911
LeftForeArm  35.0708 -25.1333 -3.55002
LeftHand  -0.25398 0.0180481 5.50724
RightShoulder  1.35679 2.56289 15.5907
RightArm  -32.567 -7.7853 12.6513
RightForeArm  -5.22032 10.618 1.6864
RightHand  -1.07898 2.48571 -16.0725
LeftUpLeg  -0.578788 6.70592 5.08408
LeftLeg  0.630881 15.1004 -5.14056
LeftFoot  4.54097 -0.0051248 -0.16119
LeftToes  1.06245e-005 4.65855e-005 -8.18504e-006
186
root  -54.6349 41.3214 24.3215 -178.78 -68.4169 175.394
RightUpLeg  2.46022 -10.99 -8.89084
RightLeg  8.89108 -13.1937 2.01551
RightFoot  -5.15881 -0.135916 1.8523
RightToes  0.00048216 0.542163 -0.142577
Spine  2.74334 -1.43496 0.284467
Spine1  7.78144 -2.05665 2.64503
HEad  -12.0771 -14.582 2.01659
LeftShoulder1  3.42749 -7.39928 -25.2296
LeftArm  -15.7246 9.88203 -8.35806
LeftForeArm  32.2826 -20.335 -2.99273
LeftHand  -0.25398 0.0180481 5.50724
RightShoulder  1.01166 1.46875 13.4157
RightArm  -33.0483 -5.50501 10.7769
RightForeArm  -5.07932 10.1861 1.56815
RightHand  -1.06773 2.47167 -15.9358
LeftUpLeg  -0.838371 6.7609 5.41739
LeftLeg  0.519591 14.51 -5.04436
LeftFoot  4.81269 0.0188437 -0.338149
LeftToes  1.06245e-005 4.65855e-005 -8.18504e-006
187
root  -54.4969 41.3119 24.1308 -178.508 -68.8757 175.352
RightUpLeg  2.12603 -11.1165 -8.57867
RightLeg  9.11739 -13.6043 2.19203
RightFoot  -5.37973 -0.109181 1.39717
RightToes  0.00048216 0.542163 -0.142577
Spine  3.15108 -1.33479 0.918228
Spine1  7.08908 -1.77174 2.05222
HEad  -12.056 -14.8506 2.21677
LeftShoulder1  3.03954 -6.85989 -23.0099
LeftArm  -16.6845 10.5415 -8.11875
LeftForeArm  31.0623 -15.1365 -2.68771
LeftHand  -0.25398 0.0180481 5.50724
RightShoulder  0.794909 0.742323 11.5953
RightArm  -33.1436 -4.31555 8.8169
RightForeArm  -5.33388 9.91687 1.5509
RightHand  -1.03996 2.29735 -15.8647
LeftUpLeg  -1.15495 6.68251 5.64036
LeftLeg  0.230277 14.2237 -4.92812
LeftFoot  5.26239 0.0873686 -0.81693
LeftToes  1.06245e-005 4.65855e-005 -8.18504e-006
188
root  -54.3183 41.2991 23.9222 -177.553 -69.3349 174.772
RightUpLeg  1.4751 -11.387 -8.41181
RightLeg  9.49265 -13.8919 2.36123
RightFoot  -5.64666 -0.0863045 0.963789
RightToes  0.00048216 0.542163 -0.142577
Spine  3.59159 -1.1433 1.16177
Spine1  6.41399 -1.47233 1.76362
HEad  -12.3277 -15.2395 2.41012
LeftShoulder1  2.66163 -6.13942 -21.1751
LeftArm  -18.2013 11.106 -7.88278
LeftForeArm  29.9487 -11.183 -2.06952
LeftHand  -0.25398 0.0180481 5.50724
RightShoulder  0.588354 -0.0253818 9.56602
RightArm  -33.4242 -3.48971 7.49923
RightForeArm  -5.21066 9.72541 1.49531
RightHand  -1.08793 2.71358 -15.775
LeftUpLeg  -1.72749 6.52535 5.67719
LeftLeg  -0.0302746 14.0371 -4.84964
LeftFoot  5.80676 0.153195 -1.25129
LeftToes  1.06245e-005 4.65855e-005 -8.18504e-006
